<svg xmlns="http://www.w3.org/2000/svg" viewBox="0 0 63.21 63.21"><defs><style>.cls-1{fill:#be1e2d;stroke-width:1.83px;}.cls-1,.cls-2{stroke:#be1e2d;}.cls-1,.cls-2,.cls-4{stroke-miterlimit:10;}.cls-2{fill:red;stroke-width:1.86px;}.cls-3{fill:#fff;}.cls-4{fill:none;stroke:#fff;stroke-width:3px;}</style></defs><g id="Layer_2" data-name="Layer 2"><g id="Layer_1-2" data-name="Layer 1"><path class="cls-1" d="M9,.92H54.2c4.47,0,8.1,4.32,8.1,9.65V52.65c0,5.33-3.63,9.65-8.1,9.65H9C4.54,62.3.92,58,.92,52.65V10.57C.92,5.24,4.54.92,9,.92Z"/><path class="cls-2" d="M9.39,1.58H48.68c4.45,0,8.06,4.48,8.06,10V46.48c0,5.53-3.61,10-8.06,10H9.39c-4.45,0-8-4.48-8-10V11.59C1.34,6.06,4.94,1.58,9.39,1.58Z"/><polygon class="cls-3" points="35.69 29.75 18.11 40.93 18.11 17.75 35.69 29.75"/><line class="cls-4" x1="37.78" y1="18.47" x2="37.78" y2="41.65"/></g></g></svg>